<?xml version="1.0" encoding="UTF-8"?>
<svg id="_图层_2" data-name="图层 2" xmlns="http://www.w3.org/2000/svg" viewBox="0 0 239.72 121.94">
  <defs>
    <style>
      .cls-1 {
        fill: #fff;
      }

      .cls-2 {
        font-size: 12px;
      }

      .cls-2, .cls-3 {
        font-family: TimesNewRomanPSMT, 'Times New Roman';
      }

      .cls-2, .cls-3, .cls-4 {
        fill: #231815;
      }

      .cls-5 {
        stroke: #056baf;
      }

      .cls-5, .cls-6 {
        stroke-linejoin: round;
        stroke-width: .5px;
      }

      .cls-5, .cls-6, .cls-7, .cls-8, .cls-9 {
        fill: none;
      }

      .cls-3 {
        font-size: 8.96px;
      }

      .cls-6 {
        stroke: #262626;
        stroke-linecap: square;
      }

      .cls-7 {
        stroke-dasharray: 0 0 3.04 1.01;
      }

      .cls-7, .cls-8, .cls-9 {
        stroke: #231815;
        stroke-miterlimit: 10;
        stroke-width: .75px;
      }

      .cls-9 {
        stroke-dasharray: 0 0 2.96 .99;
      }

      .cls-10 {
        letter-spacing: -.02em;
      }
    </style>
  </defs>
  <g id="_图层_1-2" data-name="图层 1">
    <rect class="cls-1" x="13.87" y="40.73" width="50.05" height="50.05"/>
    <line class="cls-6" x1="13.87" y1="90.78" x2="63.92" y2="90.78"/>
    <line class="cls-6" x1="13.87" y1="90.78" x2="13.87" y2="40.73"/>
    <line class="cls-6" x1="13.87" y1="78.27" x2="14.37" y2="78.27"/>
    <line class="cls-6" x1="13.87" y1="65.76" x2="14.37" y2="65.76"/>
    <line class="cls-6" x1="13.87" y1="53.25" x2="14.37" y2="53.25"/>
    <text class="cls-3" transform="translate(0 81.26)"><tspan x="0" y="0">C4</tspan></text>
    <text class="cls-3" transform="translate(.17 68.75)"><tspan x="0" y="0">Cz</tspan></text>
    <text class="cls-3" transform="translate(.21 56.23)"><tspan x="0" y="0">C3</tspan></text>
    <polyline class="cls-5" points="14 77.83 14.13 85.5 14.26 76.32 14.39 81.14 14.52 78.99 14.65 82.34 14.78 76.78 14.91 83.78 15.04 80.15 15.17 79.37 15.31 79.77 15.44 82.49 15.57 80.27 15.7 79.35 15.83 83.28 15.96 80 16.09 74.55 16.22 80.64 16.35 85.22 16.48 78.2 16.61 79.12 16.74 80.5 16.87 78.89 17 80.89 17.13 84.9 17.26 80.47 17.39 85.93 17.52 80.99 17.65 74.65 17.78 78.31 17.91 75.76 18.04 83.39 18.17 73.85 18.3 75.43 18.43 74.66 18.56 81.3 18.69 82.36 18.82 81.55 18.95 78.28 19.09 78.39 19.22 78.5 19.35 80.02 19.48 79.84 19.61 73.24 19.74 74.84 19.87 78.79 20 84.05 20.13 80.55 20.26 77.11 20.39 77.16 20.52 79.16 20.65 76.15 20.78 81.47 20.91 71.74 21.04 85.33 21.17 79.53 21.3 77.75 21.43 78.92 21.56 82.16 21.69 75.42 21.82 78.59 21.95 82.61 22.08 79.91 22.21 79.49 22.34 77.15 22.47 74.42 22.6 80.36 22.73 83.2 22.86 73.92 23 78.64 23.13 82.65 23.26 77.89 23.39 72.4 23.52 82.61 23.65 76.45 23.78 77.92 23.91 78.8 24.04 83.05 24.17 77.96 24.3 73.32 24.43 74.28 24.56 70.3 24.69 81.12 24.82 79.7 24.95 85.44 25.08 83.75 25.21 81.33 25.34 79.02 25.47 81.47 25.6 78.27 25.73 78.07 25.86 78.48 25.99 80.84 26.12 70.06 26.25 79.54 26.38 78.24 26.51 83.92 26.64 76.18 26.78 78.79 26.91 80.47 27.04 76.22 27.17 75.91 27.3 83.67 27.43 82.05 27.56 76.4 27.69 76.69 27.82 77.75 27.95 77.33 28.08 78.02 28.21 80.29 28.34 76.06 28.47 74.54 28.6 82.01 28.73 78.31 28.86 82.37 28.99 78.9 29.12 76.1 29.25 76.7 29.38 78.76 29.51 74.57 29.64 74.9 29.77 77.14 29.9 83.4 30.03 74.94 30.16 83.26 30.29 82.38 30.42 85.73 30.56 80.63 30.69 79.49 30.82 81.71 30.95 75.68 31.08 76.03 31.21 79 31.34 78.68 31.47 74.96 31.6 77.24 31.73 73.03 31.86 78.46 31.99 78.6 32.12 83.9 32.25 86.13 32.38 79.02 32.51 73.97 32.64 77.31 32.77 78.78 32.9 77.08 33.03 80.53 33.16 77.77 33.29 78.97 33.42 81.19 33.55 83.68 33.68 75.03 33.81 82 33.94 77.11 34.07 75.3 34.2 78.99 34.33 74.06 34.47 82.86 34.6 78.88 34.73 75.95 34.86 78.99 34.99 73.41 35.12 84.13 35.25 78.9 35.38 82.05 35.51 76.13 35.64 81.91 35.77 71.06 35.9 80.69 36.03 77.95 36.16 80.32 36.29 83.03 36.42 78.03 36.55 76.15 36.68 78.98 36.81 76.81 36.94 80.35 37.07 81.42 37.2 79.02 37.33 73.98 37.46 84.65 37.59 83.93 37.72 79.5 37.85 77.34 37.98 80.58 38.11 78.35 38.25 82.88 38.38 75.25 38.51 83.42 38.64 78.49 38.77 74.91 38.9 76.95 39.03 74.85 39.16 78.6 39.29 70.32 39.42 82 39.55 76.26 39.68 74.74 39.81 81.91 39.94 77.01 40.07 76.95 40.2 69.06 40.33 82.71 40.46 81.79 40.59 83.07 40.72 82.95 40.85 77.35 40.98 82.77 41.11 76.3 41.24 79.13 41.37 77.54 41.5 78.6 41.63 76.05 41.76 76.41 41.89 70.8 42.02 80.5 42.16 78.17 42.29 74.64 42.42 82.3 42.55 80.4 42.68 85.55 42.81 76.62 42.94 77.21 43.07 78.56 43.2 81.34 43.33 84.22 43.46 75.04 43.59 78.2 43.72 76.6 43.85 78.77 43.98 81.98 44.11 82.82 44.24 81.96 44.37 74.58 44.5 74.25 44.63 79.39 44.76 72.7 44.89 73.76 45.02 77.1 45.15 75.89 45.28 81.15 45.41 78.94 45.54 78.94 45.67 84.01 45.8 85.88 45.94 79.15 46.07 77.06 46.2 82.35 46.33 81.17 46.46 81.56 46.59 78.45 46.72 73.22 46.85 78.46 46.98 79.09 47.11 90.78 47.24 79.07 47.37 83.24 47.5 80.99 47.63 74.41 47.76 79.63 47.89 75.25 48.02 82.28 48.15 86.99 48.28 72.64 48.41 79.57 48.54 85.72 48.67 79.97 48.8 85.05 48.93 85.09 49.06 74.47 49.19 82.82 49.32 81.73 49.45 80.25 49.58 82.16 49.72 83.03 49.85 77.09 49.98 84.68 50.11 75.38 50.24 78.79 50.37 76.64 50.5 77.52 50.63 83.62 50.76 80.14 50.89 76.89 51.02 79.42 51.15 79.06 51.28 71.57 51.41 81.17 51.54 76.23 51.67 81.67 51.8 80.79 51.93 80.8 52.06 75.92 52.19 78.77 52.32 76.28 52.45 79.05 52.58 75.43 52.71 87.85 52.84 81.1 52.97 80.32 53.1 78.41 53.23 78.17 53.36 79.72 53.49 80.35 53.63 77.94 53.76 78.95 53.89 80.41 54.02 74.75 54.15 73.28 54.28 82.9 54.41 79.82 54.54 77.95 54.67 77.9 54.8 76.38 54.93 75.55 55.06 76.72 55.19 81.05 55.32 83.53 55.45 80.1 55.58 77.29 55.71 75.74 55.84 73.73 55.97 78.02 56.1 79.67 56.23 84.95 56.36 84.03 56.49 80.42 56.62 77.06 56.75 79.45 56.88 76.79 57.01 83.19 57.14 77.82 57.27 82.12 57.41 75.97 57.54 86.17 57.67 84.4 57.8 84.28 57.93 85.38 58.06 80.86 58.19 80.54 58.32 82.18 58.45 82.55 58.58 76.25 58.71 74.15 58.84 81.85 58.97 75.77 59.1 86.19 59.23 79.31 59.36 83.56 59.49 76.68 59.62 71.53 59.75 74.61 59.88 82.27 60.01 79.89 60.14 78.87 60.27 71.32 60.4 79.82 60.53 84.58 60.66 80.33 60.79 83.24 60.92 73.88 61.05 80.31 61.19 75.33 61.32 77.96 61.45 83.37 61.58 74.02 61.71 76.01 61.84 88.12 61.97 77.34 62.1 88.01 62.23 80.03 62.36 78.55 62.49 77.93 62.62 78.36 62.75 80.63 62.88 74.79 63.01 76.01 63.14 73.67 63.27 87.98 63.4 77.97 63.53 85.5 63.66 76.4 63.79 80.43 63.92 73.97"/>
    <polyline class="cls-5" points="14 53.25 14.13 66.98 14.26 67.32 14.39 65.47 14.52 71.57 14.65 67.26 14.78 65.91 14.91 70.13 15.04 65.02 15.17 75.87 15.31 74.55 15.44 68.34 15.57 68.72 15.7 64.32 15.83 68.94 15.96 65.74 16.09 71.39 16.22 62.93 16.35 69.43 16.48 63.58 16.61 66.25 16.74 69.43 16.87 68.13 17 71.59 17.13 65.96 17.26 68.83 17.39 61.43 17.52 62 17.65 66.15 17.78 59.1 17.91 64.71 18.04 64.08 18.17 72.8 18.3 65.13 18.43 60.51 18.56 63.82 18.69 68.45 18.82 67.7 18.95 63.69 19.09 68.15 19.22 68.96 19.35 67.42 19.48 66.79 19.61 64.51 19.74 65.92 19.87 65.95 20 68.74 20.13 68.48 20.26 64.8 20.39 64.07 20.52 65.06 20.65 62.7 20.78 70.5 20.91 64.57 21.04 68.15 21.17 61.76 21.3 68.29 21.43 68.24 21.56 67.07 21.69 69.17 21.82 68.01 21.95 69.14 22.08 64.83 22.21 60.56 22.34 75.8 22.47 61.18 22.6 73.42 22.73 65.78 22.86 57.37 23 64.06 23.13 64.58 23.26 62.1 23.39 69.88 23.52 61.98 23.65 71.51 23.78 72.03 23.91 68.74 24.04 67.18 24.17 65.48 24.3 72.08 24.43 56.27 24.56 62.21 24.69 67.03 24.82 66.57 24.95 63.17 25.08 68.48 25.21 61.3 25.34 65.52 25.47 65.13 25.6 68.34 25.73 63.54 25.86 57.13 25.99 65.87 26.12 67.91 26.25 65.26 26.38 68.18 26.51 74.84 26.64 74.56 26.78 66.85 26.91 68.95 27.04 63.01 27.17 69.88 27.3 70.6 27.43 67.88 27.56 71.18 27.69 64.36 27.82 69.45 27.95 66.93 28.08 57.39 28.21 68.84 28.34 62.31 28.47 65.38 28.6 72.88 28.73 65.23 28.86 63.12 28.99 62.62 29.12 72.58 29.25 71.78 29.38 66.74 29.51 72.18 29.64 68.65 29.77 70.98 29.9 62.46 30.03 72.75 30.16 69.29 30.29 59.33 30.42 64.89 30.56 68.98 30.69 59.03 30.82 68.77 30.95 73.34 31.08 67.48 31.21 64.54 31.34 64.58 31.47 62.11 31.6 67.95 31.73 65.5 31.86 68.37 31.99 70.13 32.12 67.86 32.25 70.79 32.38 67.93 32.51 63.34 32.64 71.98 32.77 60.5 32.9 64.03 33.03 69.19 33.16 63.15 33.29 66.48 33.42 66.97 33.55 68.73 33.68 67.94 33.81 64.58 33.94 64.85 34.07 64.35 34.2 63.34 34.33 68.19 34.47 56.56 34.6 62.01 34.73 64.2 34.86 71.6 34.99 72.54 35.12 70.01 35.25 66.91 35.38 64.65 35.51 67.23 35.64 69.59 35.77 73.15 35.9 63.35 36.03 69.64 36.16 70.09 36.29 67.91 36.42 64.28 36.55 76.68 36.68 67.8 36.81 57.91 36.94 67.17 37.07 68.61 37.2 58.78 37.33 66.38 37.46 64.43 37.59 66.03 37.72 66.72 37.85 65.45 37.98 73.37 38.11 69.33 38.25 71.42 38.38 67.19 38.51 64.85 38.64 65.86 38.77 69.48 38.9 66.36 39.03 70.71 39.16 65.06 39.29 63.77 39.42 69.56 39.55 71.13 39.68 70.17 39.81 68.22 39.94 67.21 40.07 66.61 40.2 64.53 40.33 67.22 40.46 58.39 40.59 62.29 40.72 64.39 40.85 69.74 40.98 70.04 41.11 66.55 41.24 67.53 41.37 65.34 41.5 78.09 41.63 68.61 41.76 66.92 41.89 66.03 42.02 62.53 42.16 57.53 42.29 64.78 42.42 63.23 42.55 62.46 42.68 66.12 42.81 67.07 42.94 58.26 43.07 65.25 43.2 66.82 43.33 63.03 43.46 60.53 43.59 68.39 43.72 69.16 43.85 64.1 43.98 61.67 44.11 65.82 44.24 62.58 44.37 67.59 44.5 70.12 44.63 64.73 44.76 73.45 44.89 62.27 45.02 69.31 45.15 60.16 45.28 71.19 45.41 70.57 45.54 67.01 45.67 68.86 45.8 70.13 45.94 67.43 46.07 66.97 46.2 69.4 46.33 66.2 46.46 62.59 46.59 74.68 46.72 65.65 46.85 66.34 46.98 68.84 47.11 64.56 47.24 65.86 47.37 63.63 47.5 64.51 47.63 73.19 47.76 71.32 47.89 68.39 48.02 68.34 48.15 73 48.28 57.84 48.41 67.31 48.54 64.61 48.67 67.04 48.8 68.88 48.93 68.44 49.06 67.28 49.19 72.2 49.32 70.12 49.45 64.01 49.58 68.28 49.72 69.11 49.85 68.77 49.98 70.56 50.11 67.74 50.24 67.63 50.37 62.95 50.5 67.5 50.63 70.52 50.76 70.72 50.89 65.78 51.02 71.58 51.15 60.05 51.28 71.69 51.41 66.44 51.54 67.63 51.67 64.63 51.8 67.18 51.93 71.04 52.06 71.51 52.19 63.94 52.32 68.84 52.45 62 52.58 68.83 52.71 71.5 52.84 64.06 52.97 71.48 53.1 64.15 53.23 62.91 53.36 65.83 53.49 64.6 53.63 68.92 53.76 64.01 53.89 65.36 54.02 68.59 54.15 64 54.28 66.34 54.41 70.3 54.54 60.46 54.67 70.21 54.8 67.89 54.93 64.86 55.06 67.55 55.19 67.49 55.32 62.93 55.45 72.66 55.58 69.98 55.71 63.92 55.84 69.62 55.97 67.39 56.1 68.34 56.23 66.49 56.36 65.84 56.49 58.63 56.62 57.65 56.75 63.3 56.88 62.98 57.01 71.02 57.14 66.02 57.27 65.15 57.41 65.79 57.54 65.5 57.67 67.58 57.8 69.58 57.93 67.52 58.06 68.23 58.19 69.2 58.32 66.26 58.45 66.2 58.58 70.95 58.71 65.15 58.84 71.53 58.97 63.93 59.1 59.59 59.23 67.41 59.36 66.45 59.49 65.79 59.62 71.92 59.75 62.64 59.88 66.56 60.01 68.97 60.14 62.44 60.27 59.06 60.4 68.88 60.53 63.83 60.66 71.02 60.79 62.36 60.92 71.91 61.05 58.43 61.19 59.85 61.32 64.17 61.45 61.41 61.58 59.11 61.71 68.19 61.84 63.72 61.97 60.81 62.1 64.65 62.23 71.38 62.36 65.77 62.49 70.34 62.62 61.3 62.75 64.64 62.88 66.47 63.01 68.35 63.14 73.26 63.27 71.22 63.4 75.83 63.53 60.93 63.66 67.71 63.79 76.99 63.92 69.74"/>
    <polyline class="cls-5" points="14 51.41 14.13 54.11 14.26 50.97 14.39 54.82 14.52 52.14 14.65 57.25 14.78 56.74 14.91 54.4 15.04 54.09 15.17 50.74 15.31 53.47 15.44 52.83 15.57 49.87 15.7 48.6 15.83 55.48 15.96 53.4 16.09 52.9 16.22 55.43 16.35 51.54 16.48 53.84 16.61 55.99 16.74 58.46 16.87 57.43 17 59.25 17.13 59.4 17.26 53.86 17.39 58.87 17.52 55.76 17.65 52.12 17.78 55.02 17.91 51.81 18.04 47.17 18.17 53.79 18.3 52.76 18.43 60.19 18.56 55.11 18.69 54.25 18.82 50.6 18.95 49.63 19.09 59.01 19.22 57.84 19.35 51.85 19.48 52.46 19.61 54.46 19.74 54.04 19.87 55.74 20 58.66 20.13 57.57 20.26 59.04 20.39 52.44 20.52 58.55 20.65 43.89 20.78 57.06 20.91 51.28 21.04 53.03 21.17 59.54 21.3 53.34 21.43 51.93 21.56 60.97 21.69 51.32 21.82 51.15 21.95 50.81 22.08 53.64 22.21 51.98 22.34 56.21 22.47 54.3 22.6 56.59 22.73 48.05 22.86 51.78 23 52.57 23.13 51.56 23.26 61.54 23.39 51.44 23.52 58.24 23.65 56.5 23.78 56.66 23.91 55.34 24.04 47.43 24.17 49.44 24.3 52.45 24.43 56.24 24.56 54.31 24.69 55.02 24.82 52.37 24.95 56.69 25.08 53.35 25.21 45.47 25.34 54.36 25.47 51.64 25.6 53.4 25.73 53.97 25.86 57.94 25.99 59.47 26.12 56.82 26.25 52.58 26.38 61.3 26.51 55.8 26.64 55.15 26.78 53.12 26.91 49.74 27.04 48.33 27.17 55.2 27.3 54.62 27.43 59.12 27.56 52.84 27.69 51.37 27.82 53.76 27.95 52.05 28.08 55.18 28.21 57.85 28.34 56.49 28.47 55.77 28.6 56.09 28.73 47.29 28.86 55.93 28.99 57.92 29.12 54.17 29.25 61.45 29.38 56.75 29.51 55.36 29.64 53.89 29.77 56.39 29.9 57.43 30.03 56.26 30.16 54.86 30.29 52.02 30.42 51.22 30.56 54.36 30.69 49.4 30.82 51.55 30.95 53.78 31.08 62.17 31.21 53.72 31.34 64.5 31.47 48.37 31.6 54.5 31.73 47.77 31.86 47.12 31.99 55.8 32.12 49.34 32.25 57.5 32.38 55.04 32.51 53.75 32.64 46.19 32.77 56.79 32.9 53.27 33.03 53.35 33.16 52.28 33.29 51.28 33.42 55.62 33.55 52.87 33.68 53.4 33.81 56.26 33.94 57.9 34.07 50 34.2 49.67 34.33 51.2 34.47 57.9 34.6 55.17 34.73 53.34 34.86 57.6 34.99 52.68 35.12 55.23 35.25 58.98 35.38 52.33 35.51 52.28 35.64 58.6 35.77 52.63 35.9 49.48 36.03 53.16 36.16 59.56 36.29 54.2 36.42 57.58 36.55 57.45 36.68 51.07 36.81 56.03 36.94 59.92 37.07 53.29 37.2 46.79 37.33 53.72 37.46 53.55 37.59 52.57 37.72 55.7 37.85 59.37 37.98 46.7 38.11 52.7 38.25 58.63 38.38 53.74 38.51 54.05 38.64 56.79 38.77 50.36 38.9 58.53 39.03 51.5 39.16 48.71 39.29 56.29 39.42 56.61 39.55 50.03 39.68 58 39.81 53.68 39.94 54.92 40.07 54.89 40.2 57.31 40.33 56.1 40.46 57.54 40.59 49.45 40.72 46.77 40.85 53.98 40.98 51.63 41.11 51.43 41.24 48.95 41.37 50.56 41.5 59.75 41.63 48.97 41.76 48.93 41.89 53.4 42.02 52.61 42.16 50.07 42.29 54.76 42.42 54.69 42.55 47.2 42.68 48.94 42.81 58.11 42.94 60.55 43.07 56.56 43.2 56.24 43.33 49.74 43.46 54.18 43.59 57.17 43.72 50.32 43.85 54.86 43.98 48.49 44.11 55.13 44.24 50.82 44.37 56.1 44.5 59.88 44.63 48.71 44.76 51.4 44.89 54 45.02 48.72 45.15 65.66 45.28 55.53 45.41 54.25 45.54 59.13 45.67 51.07 45.8 50.87 45.94 56.73 46.07 60.45 46.2 56.23 46.33 46.96 46.46 52.62 46.59 55.17 46.72 62.49 46.85 56.36 46.98 53.94 47.11 58.93 47.24 53.34 47.37 54.31 47.5 57.92 47.63 53.06 47.76 56.25 47.89 59.27 48.02 50.17 48.15 51.85 48.28 57.61 48.41 46.99 48.54 44.88 48.67 57.28 48.8 55.48 48.93 54.78 49.06 60 49.19 48.89 49.32 53.14 49.45 51.45 49.58 54.04 49.72 54.53 49.85 53.31 49.98 47.73 50.11 58.87 50.24 55.29 50.37 53.27 50.5 54.05 50.63 52.11 50.76 54.35 50.89 50.13 51.02 48.69 51.15 51.57 51.28 53.8 51.41 47.54 51.54 52.35 51.67 57.61 51.8 54.03 51.93 58.09 52.06 57.32 52.19 53.28 52.32 57.72 52.45 47.9 52.58 49.53 52.71 47.27 52.84 54.68 52.97 53.75 53.1 58.77 53.23 47.08 53.36 46.4 53.49 55.1 53.63 61.19 53.76 57.14 53.89 52.64 54.02 52.54 54.15 57.39 54.28 57.07 54.41 54.99 54.54 51.74 54.67 52.61 54.8 50.29 54.93 52.27 55.06 57.14 55.19 51.01 55.32 59.38 55.45 52.26 55.58 53.6 55.71 54.38 55.84 54.58 55.97 53.59 56.1 58.96 56.23 54.83 56.36 50.22 56.49 57.57 56.62 50.88 56.75 53.72 56.88 52.36 57.01 52.66 57.14 54.63 57.27 60.96 57.41 52.52 57.54 55.64 57.67 56.49 57.8 54.66 57.93 55.18 58.06 52.8 58.19 55.04 58.32 55.26 58.45 50.26 58.58 59.88 58.71 57.88 58.84 57.75 58.97 59.46 59.1 53.53 59.23 55.4 59.36 52.77 59.49 53.9 59.62 49.43 59.75 58.89 59.88 55.04 60.01 52.85 60.14 48.92 60.27 56.71 60.4 48.51 60.53 50.09 60.66 52.82 60.79 49.74 60.92 58.03 61.05 56.78 61.19 55.44 61.32 52.73 61.45 53.18 61.58 55.76 61.71 53.68 61.84 52.87 61.97 57.2 62.1 51.1 62.23 52.5 62.36 57.2 62.49 57.6 62.62 56.55 62.75 56.25 62.88 54.57 63.01 55.68 63.14 52.82 63.27 53.69 63.4 56.81 63.53 49.92 63.66 50.59 63.79 53.45 63.92 49.24"/>
    <rect class="cls-1" x="189.42" y="40.73" width="50.05" height="50.05"/>
    <line class="cls-6" x1="189.42" y1="90.78" x2="239.47" y2="90.78"/>
    <line class="cls-6" x1="189.42" y1="90.78" x2="189.42" y2="40.73"/>
    <line class="cls-6" x1="189.42" y1="78.27" x2="189.92" y2="78.27"/>
    <line class="cls-6" x1="189.42" y1="65.76" x2="189.92" y2="65.76"/>
    <line class="cls-6" x1="189.42" y1="53.25" x2="189.92" y2="53.25"/>
    <text class="cls-3" transform="translate(175.55 81.26)"><tspan x="0" y="0">C4</tspan></text>
    <text class="cls-3" transform="translate(175.72 68.75)"><tspan x="0" y="0">Cz</tspan></text>
    <text class="cls-3" transform="translate(175.77 56.23)"><tspan x="0" y="0">C3</tspan></text>
    <polyline class="cls-5" points="189.55 84.46 189.68 65.76 189.81 67.8 189.94 79.54 190.07 84.46 190.2 82.6 190.34 81.95 190.47 84.01 190.6 86.09 190.73 84.89 190.86 82.1 190.99 81.11 191.12 78.84 191.25 77.87 191.38 81.31 191.51 83.53 191.64 80.68 191.77 77.35 191.9 78.39 192.03 81.94 192.16 81.84 192.29 79.99 192.42 79.41 192.55 79.89 192.68 81.29 192.81 83.44 192.94 83.64 193.07 82.15 193.2 82.14 193.33 82.1 193.46 81.56 193.59 81.01 193.72 78.68 193.85 77.19 193.98 78.69 194.11 81.35 194.25 81.46 194.38 80.14 194.51 80.51 194.64 81.45 194.77 82.48 194.9 84.78 195.03 85.52 195.16 81.1 195.29 76.86 195.42 77.6 195.55 80.39 195.68 81.04 195.81 81.26 195.94 82.13 196.07 80.81 196.2 79.57 196.33 79.85 196.46 80.81 196.59 81.78 196.72 82.58 196.85 82.61 196.98 80.5 197.11 78.58 197.24 79.7 197.37 81.79 197.5 81.33 197.63 80.51 197.76 80.89 197.89 82.12 198.03 83.99 198.16 83.66 198.29 80.74 198.42 78.84 198.55 79.03 198.68 81.18 198.81 82.15 198.94 80.83 199.07 79.01 199.2 76.68 199.33 76.42 199.46 79.85 199.59 83.31 199.72 84.25 199.85 83.43 199.98 83.14 200.11 85.99 200.24 86.5 200.37 80.89 200.5 74.29 200.63 73.05 200.76 76.25 200.89 79.25 201.02 81.22 201.15 84.69 201.28 86.28 201.41 84.17 201.54 81.23 201.67 79.52 201.81 78.65 201.94 78.15 202.07 79.88 202.2 82.82 202.33 83.56 202.46 80.82 202.59 78.58 202.72 79.56 202.85 79.5 202.98 78.71 203.11 80.4 203.24 82.85 203.37 83.39 203.5 83.18 203.63 84.48 203.76 83.93 203.89 79 204.02 75.02 204.15 75.81 204.28 78.92 204.41 82.22 204.54 83.48 204.67 81.06 204.8 80.42 204.93 84.39 205.06 87.44 205.19 85 205.32 78.9 205.45 73.48 205.58 73.72 205.72 78.05 205.85 81.72 205.98 83.03 206.11 83.61 206.24 83.47 206.37 82.52 206.5 81.05 206.63 79.5 206.76 81.1 206.89 83.14 207.02 81.64 207.15 79.83 207.28 81.07 207.41 82.67 207.54 79.52 207.67 75.95 207.8 78.18 207.93 81.56 208.06 81.74 208.19 80.82 208.32 82.04 208.45 83.52 208.58 82.79 208.71 80.7 208.84 78.82 208.97 78.35 209.1 80.52 209.23 83.27 209.36 83.3 209.5 81.86 209.63 80.89 209.76 80.72 209.89 81.25 210.02 80.85 210.15 79.31 210.28 79.5 210.41 80.05 210.54 79.37 210.67 79.13 210.8 78.72 210.93 78.81 211.06 81.13 211.19 83.46 211.32 86 211.45 86.99 211.58 84.74 211.71 80.5 211.84 77.93 211.97 76.07 212.1 76.26 212.23 78.67 212.36 81.22 212.49 82.88 212.62 86.22 212.75 88.09 212.88 81.81 213.01 72.62 213.14 72.57 213.28 79.87 213.41 82.88 213.54 80.6 213.67 78.78 213.8 80.81 213.93 84.16 214.06 85.42 214.19 85.48 214.32 84.36 214.45 81.55 214.58 79.35 214.71 78.08 214.84 77.49 214.97 78.53 215.1 78.31 215.23 77.37 215.36 79.92 215.49 84.47 215.62 83.91 215.75 80.38 215.88 80.98 216.01 85.17 216.14 85.41 216.27 78.82 216.4 73.7 216.53 77.94 216.66 84.22 216.79 84.27 216.92 81.41 217.05 79.64 217.19 79.77 217.32 81.14 217.45 83.03 217.58 83.79 217.71 81.31 217.84 76.85 217.97 75.06 218.1 77.71 218.23 80.91 218.36 83.9 218.49 88.04 218.62 89.01 218.75 81.45 218.88 72.13 219.01 73.02 219.14 81.52 219.27 85.96 219.4 82.21 219.53 78.93 219.66 79 219.79 79.83 219.92 81.37 220.05 82.88 220.18 82.89 220.31 82.44 220.44 81.86 220.57 78.68 220.7 75.45 220.83 77.47 220.97 84.68 221.1 88.87 221.23 85.95 221.36 79.42 221.49 74.28 221.62 73.7 221.75 78.04 221.88 82.77 222.01 84.89 222.14 84.46 222.27 82.75 222.4 80.64 222.53 79.36 222.66 79.02 222.79 81.14 222.92 85.36 223.05 84.56 223.18 77.62 223.31 73.82 223.44 76.4 223.57 80.52 223.7 83.32 223.83 85.37 223.96 85.96 224.09 82.91 224.22 78.44 224.35 77.95 224.48 80.46 224.61 81.64 224.74 79.22 224.88 76.49 225.01 77.19 225.14 82.08 225.27 87.34 225.4 88.27 225.53 83.41 225.66 76.3 225.79 75.7 225.92 80.5 226.05 81.5 226.18 78.39 226.31 78.04 226.44 82.16 226.57 84.24 226.7 82.28 226.83 80.71 226.96 81.16 227.09 82.21 227.22 82.24 227.35 80.67 227.48 78.59 227.61 78.13 227.74 80.39 227.87 82.55 228 82.08 228.13 81.6 228.26 81.98 228.39 80.72 228.52 78.93 228.66 78.04 228.79 79.37 228.92 82.43 229.05 83.59 229.18 81.15 229.31 79.94 229.44 82.11 229.57 83.52 229.7 82.93 229.83 81.6 229.96 78.97 230.09 77.42 230.22 78.86 230.35 79.44 230.48 77.95 230.61 78.77 230.74 81.63 230.87 83.21 231 84.12 231.13 85.41 231.26 85.71 231.39 83.58 231.52 79.42 231.65 75.71 231.78 76.25 231.91 80.56 232.04 82.79 232.17 79.98 232.3 76.76 232.44 77.28 232.57 80.14 232.7 84.26 232.83 85.52 232.96 82.32 233.09 79.99 233.22 82.48 233.35 85.51 233.48 83.65 233.61 80.14 233.74 77.62 233.87 77.25 234 78.38 234.13 79.22 234.26 80.23 234.39 81 234.52 79.22 234.65 79.05 234.78 83.54 234.91 86.17 235.04 83.35 235.17 80.48 235.3 80.8 235.43 82.51 235.56 82.9 235.69 80.15 235.82 75.66 235.95 75.39 236.08 79.93 236.21 81.91 236.35 80.99 236.48 80.93 236.61 82 236.74 84.15 236.87 84.97 237 82.96 237.13 79.26 237.26 78.28 237.39 79.9 237.52 81.04 237.65 81.19 237.78 82.02 237.91 82.18 238.04 80.65 238.17 80.29 238.3 79.87 238.43 77.14 238.56 75.34 238.69 77.72 238.82 82.77 238.95 87.02 239.08 86.79 239.21 86.46 239.34 85.29 239.47 81.08"/>
    <polyline class="cls-5" points="189.55 69.9 189.68 64.13 189.81 63.56 189.94 65.47 190.07 65.83 190.2 63.42 190.34 64.78 190.47 69.18 190.6 70.97 190.73 69.95 190.86 68.87 190.99 67.27 191.12 66.16 191.25 66.49 191.38 66.11 191.51 65.34 191.64 64.79 191.77 65.88 191.9 68.2 192.03 71.14 192.16 72.12 192.29 69.8 192.42 67.37 192.55 67.36 192.68 68.24 192.81 67.23 192.94 64.87 193.07 63.75 193.2 64.82 193.33 66.9 193.46 69.17 193.59 69.21 193.72 67.89 193.85 67.32 193.98 67.19 194.11 67.11 194.25 66.7 194.38 67.2 194.51 67.58 194.64 67.8 194.77 66.91 194.9 67 195.03 68.7 195.16 69.67 195.29 67.8 195.42 66.36 195.55 67.35 195.68 67.97 195.81 67.35 195.94 66.8 196.07 66.5 196.2 67.11 196.33 67.85 196.46 68.01 196.59 66.75 196.72 65.02 196.85 64.65 196.98 67.55 197.11 70.38 197.24 69.2 197.37 66.27 197.5 65.89 197.63 68.79 197.76 70.88 197.89 70.46 198.03 68.93 198.16 67.51 198.29 65.84 198.42 64.63 198.55 63.81 198.68 63.9 198.81 65.9 198.94 68.9 199.07 70.74 199.2 69.36 199.33 66.58 199.46 66.33 199.59 68.85 199.72 70.16 199.85 68.76 199.98 67.1 200.11 67.29 200.24 68.04 200.37 67.44 200.5 65.77 200.63 64.6 200.76 64.82 200.89 66.43 201.02 69.71 201.15 71.81 201.28 70.29 201.41 65.99 201.54 63.72 201.67 67.28 201.81 70.73 201.94 69.35 202.07 65.76 202.2 64.2 202.33 64.1 202.46 64.46 202.59 67.72 202.72 71.35 202.85 71.33 202.98 68.19 203.11 66.48 203.24 67.99 203.37 68.64 203.5 66.96 203.63 66.22 203.76 67.35 203.89 67.72 204.02 66.13 204.15 65.36 204.28 66.6 204.41 68.1 204.54 67.99 204.67 67.93 204.8 68.62 204.93 68.37 205.06 66.49 205.19 65.22 205.32 66.33 205.45 68.88 205.58 68.68 205.72 66.8 205.85 67.67 205.98 69.02 206.11 68.91 206.24 67.28 206.37 66.07 206.5 65.84 206.63 66.3 206.76 66.68 206.89 66.59 207.02 67.25 207.15 69.23 207.28 70.74 207.41 69.72 207.54 66.26 207.67 63.76 207.8 64.91 207.93 67.7 208.06 68.96 208.19 68.31 208.32 67.87 208.45 68.32 208.58 67.31 208.71 65.58 208.84 66.56 208.97 70.23 209.1 71.65 209.23 67.96 209.36 62.63 209.5 62.43 209.63 67.12 209.76 71.07 209.89 70.45 210.02 66.89 210.15 65.53 210.28 67.13 210.41 68.75 210.54 68.64 210.67 68.78 210.8 67.62 210.93 65.46 211.06 63.41 211.19 64.83 211.32 68.8 211.45 70.35 211.58 68.91 211.71 67.67 211.84 68.89 211.97 69.62 212.1 67.21 212.23 64.16 212.36 64.73 212.49 67.1 212.62 67.7 212.75 66.96 212.88 67.08 213.01 67.97 213.14 67.14 213.28 66.21 213.41 67.69 213.54 69.78 213.67 69.46 213.8 68.13 213.93 67.39 214.06 67 214.19 66.09 214.32 66.01 214.45 67.13 214.58 67.85 214.71 68.07 214.84 67.9 214.97 66.73 215.1 66.03 215.23 66.9 215.36 68.31 215.49 68.38 215.62 67.18 215.75 66.19 215.88 66.04 216.01 67.56 216.14 69.01 216.27 68.54 216.4 67.38 216.53 67.74 216.66 68.41 216.79 68.66 216.92 68.67 217.05 67.5 217.19 66.29 217.32 66.09 217.45 66.76 217.58 65.43 217.71 64.23 217.84 65.31 217.97 67.44 218.1 70.91 218.23 72.74 218.36 70.58 218.49 65.81 218.62 62.68 218.75 65.12 218.88 69.55 219.01 70.65 219.14 68.51 219.27 66.18 219.4 66.05 219.53 67.08 219.66 66.91 219.79 65.82 219.92 65.61 220.05 67.66 220.18 70.14 220.31 69.27 220.44 66.67 220.57 66.44 220.7 68.42 220.83 68.83 220.97 67.24 221.1 65.48 221.23 65.11 221.36 65.68 221.49 66.67 221.62 67.61 221.75 69.22 221.88 71.02 222.01 71.95 222.14 70.07 222.27 66.7 222.4 64.6 222.53 63.51 222.66 62.82 222.79 64.76 222.92 68.29 223.05 69.1 223.18 69 223.31 68.78 223.44 69.13 223.57 69.19 223.7 68.62 223.83 67.65 223.96 66.6 224.09 66.54 224.22 66.4 224.35 66.05 224.48 66.46 224.61 67.93 224.74 68.79 224.88 67.3 225.01 64.92 225.14 65.05 225.27 67.8 225.4 69.34 225.53 68.21 225.66 67.16 225.79 67.86 225.92 69.51 226.05 70.19 226.18 69.56 226.31 68.87 226.44 66.97 226.57 63.6 226.7 62.31 226.83 64.96 226.96 68.03 227.09 68.59 227.22 68.76 227.35 69.58 227.48 69.77 227.61 68.5 227.74 66.7 227.87 65.28 228 64.43 228.13 66.28 228.26 69.35 228.39 71.14 228.52 70.39 228.66 67.06 228.79 64.83 228.92 65.79 229.05 68.1 229.18 68.43 229.31 66.51 229.44 64.97 229.57 65.22 229.7 67.21 229.83 68.84 229.96 68.55 230.09 67.28 230.22 66.58 230.35 67.47 230.48 69.24 230.61 69.79 230.74 69.51 230.87 68.44 231 66.32 231.13 64.81 231.26 65.09 231.39 66.14 231.52 67.32 231.65 67.82 231.78 67.17 231.91 66.88 232.04 68.55 232.17 70.86 232.3 70.67 232.44 67.88 232.57 65.27 232.7 63.52 232.83 63.07 232.96 64.53 233.09 66.5 233.22 68.97 233.35 70.96 233.48 70.58 233.61 70.18 233.74 69.65 233.87 68.16 234 66.41 234.13 65.91 234.26 66.21 234.39 65.4 234.52 65.25 234.65 67.05 234.78 68.94 234.91 68.29 235.04 66.61 235.17 65.9 235.3 67.02 235.43 68.55 235.56 69.53 235.69 68.88 235.82 67.39 235.95 65.31 236.08 64.32 236.21 65.36 236.35 67.94 236.48 70.56 236.61 70.85 236.74 69.63 236.87 67.35 237 65.93 237.13 66.78 237.26 68.59 237.39 68.18 237.52 64.68 237.65 62.38 237.78 64.61 237.91 68.35 238.04 70.27 238.17 70.28 238.3 69.48 238.43 68.28 238.56 66.38 238.69 65.91 238.82 67.21 238.95 67.19 239.08 65.11 239.21 64.96 239.34 68.41 239.47 69.3"/>
    <polyline class="cls-5" points="189.55 55.41 189.68 51.29 189.81 54.72 189.94 53.81 190.07 52.4 190.2 54.14 190.34 57.99 190.47 57.54 190.6 51.08 190.73 46.68 190.86 51.48 190.99 56.7 191.12 53.57 191.25 47.01 191.38 47.39 191.51 55.7 191.64 59.7 191.77 55.38 191.9 53.46 192.03 55.4 192.16 54.97 192.29 51.34 192.42 49.92 192.55 54.48 192.68 57.86 192.81 56.4 192.94 53.41 193.07 52.34 193.2 52.62 193.33 50.16 193.46 47.34 193.59 49.72 193.72 53.61 193.85 56.19 193.98 59.56 194.11 60.17 194.25 55.17 194.38 48.91 194.51 47.51 194.64 52.63 194.77 57.96 194.9 55.99 195.03 51.78 195.16 51.71 195.29 53.86 195.42 54.81 195.55 55.84 195.68 56.73 195.81 54.47 195.94 49.44 196.07 47.34 196.2 48.84 196.33 53.34 196.46 57.01 196.59 54.49 196.72 52.48 196.85 57.25 196.98 60.45 197.11 55.25 197.24 48.91 197.37 49.27 197.5 53.08 197.63 54.07 197.76 55.08 197.89 56.59 198.03 54.49 198.16 49.78 198.29 47.76 198.42 51.8 198.55 55.16 198.68 52.7 198.81 50.87 198.94 56.4 199.07 62.76 199.2 60.96 199.33 54.35 199.46 50.21 199.59 49.75 199.72 49.62 199.85 47.62 199.98 47.93 200.11 51.25 200.24 55.65 200.37 60.12 200.5 61.94 200.63 58.33 200.76 52.09 200.89 49.06 201.02 49.62 201.15 50.94 201.28 52.37 201.41 53.86 201.54 54.55 201.67 55.07 201.81 55.84 201.94 53.89 202.07 50.23 202.2 50.6 202.33 53.92 202.46 54.33 202.59 53.17 202.72 53.8 202.85 56.34 202.98 58.11 203.11 56.09 203.24 52.98 203.37 50.94 203.5 47.87 203.63 47.28 203.76 50.94 203.89 55.42 204.02 56.2 204.15 54.37 204.28 56.07 204.41 59.79 204.54 58.25 204.67 52.87 204.8 51.2 204.93 51.5 205.06 48.53 205.19 48.53 205.32 54.83 205.45 57.85 205.58 54.08 205.72 50.86 205.85 51.73 205.98 52.47 206.11 53.58 206.24 56.62 206.37 56.65 206.5 52.85 206.63 51.75 206.76 54.31 206.89 55.84 207.02 54.93 207.15 52.73 207.28 50.73 207.41 49.98 207.54 51.49 207.67 53.44 207.8 54.3 207.93 53.84 208.06 53.39 208.19 54.4 208.32 56.86 208.45 57.62 208.58 55.8 208.71 53.53 208.84 51.81 208.97 51.02 209.1 51.37 209.23 51.93 209.36 52.25 209.5 52.16 209.63 52.19 209.76 51.79 209.89 52.04 210.02 56.01 210.15 59.15 210.28 55.89 210.41 52.24 210.54 54.51 210.67 58.65 210.8 56.39 210.93 48.73 211.06 44.91 211.19 51.06 211.32 57.64 211.45 55.41 211.58 49.93 211.71 50.19 211.84 53.91 211.97 54.61 212.1 52.54 212.23 51.77 212.36 54.96 212.49 59.6 212.62 60.78 212.75 57.2 212.88 52.46 213.01 49.63 213.14 49.03 213.28 48.69 213.41 51.29 213.54 54.82 213.67 54.11 213.8 49.62 213.93 50.27 214.06 57.88 214.19 62.53 214.32 58.81 214.45 50.93 214.58 48.09 214.71 52.54 214.84 55.38 214.97 54.18 215.1 52.96 215.23 51.41 215.36 49.6 215.49 49.51 215.62 52.37 215.75 58.13 215.88 62.27 216.01 59.04 216.14 51.61 216.27 47.16 216.4 46.81 216.53 49.95 216.66 55.42 216.79 59.68 216.92 57.44 217.05 53.09 217.19 53.66 217.32 54.66 217.45 50.29 217.58 48.06 217.71 52.02 217.84 56.24 217.97 57.02 218.1 54.16 218.23 51.59 218.36 51.02 218.49 50.71 218.62 51.99 218.75 56.2 218.88 60.54 219.01 61.21 219.14 56.78 219.27 49.25 219.4 43.43 219.53 44.76 219.66 50.76 219.79 55.15 219.92 57 220.05 60.48 220.18 62 220.31 57.12 220.44 51.46 220.57 48.79 220.7 47.6 220.83 47.27 220.97 49.95 221.1 54.33 221.23 55.76 221.36 56.14 221.49 59.9 221.62 60.9 221.75 56.3 221.88 53.31 222.01 50.53 222.14 45.52 222.27 43.45 222.4 48.47 222.53 56.69 222.66 60.66 222.79 59.51 222.92 55.9 223.05 51.97 223.18 50.1 223.31 51.36 223.44 54.25 223.57 56.38 223.7 55.59 223.83 51.94 223.96 49.19 224.09 51.42 224.22 55.25 224.35 55.04 224.48 54.03 224.61 55.75 224.74 57.2 224.88 55.63 225.01 51.56 225.14 48.32 225.27 46.97 225.4 49.31 225.53 54.91 225.66 58.67 225.79 57.48 225.92 54.5 226.05 54.76 226.18 56.69 226.31 54.29 226.44 48.88 226.57 47.88 226.7 52.31 226.83 57.34 226.96 58.49 227.09 55.33 227.22 51.59 227.35 50.15 227.48 50.26 227.61 51.28 227.74 53.49 227.87 55.7 228 55.26 228.13 54.23 228.26 55.21 228.39 55.57 228.52 52.3 228.66 49.89 228.79 52.62 228.92 56.84 229.05 56.21 229.18 51.58 229.31 49.73 229.44 53.82 229.57 57.61 229.7 54.38 229.83 50.38 229.96 52.1 230.09 52.52 230.22 50.02 230.35 52.37 230.48 57.33 230.61 58.02 230.74 54.37 230.87 51.75 231 53.65 231.13 57 231.26 54.87 231.39 48.47 231.52 48.15 231.65 53.18 231.78 55.28 231.91 54.29 232.04 55 232.17 56.36 232.3 54.92 232.44 52.24 232.57 51.62 232.7 53.26 232.83 53.48 232.96 51.25 233.09 50.25 233.22 52.61 233.35 56.52 233.48 57.11 233.61 54.48 233.74 52.28 233.87 51.09 234 51.03 234.13 54.34 234.26 58.13 234.39 58.14 234.52 55.96 234.65 53.95 234.78 50 234.91 46.8 235.04 49.11 235.17 54.87 235.3 55.41 235.43 51.77 235.56 51.61 235.69 54.88 235.82 56.46 235.95 56.24 236.08 56.49 236.21 56.35 236.35 51.9 236.48 46.99 236.61 50.01 236.74 56.31 236.87 58.2 237 55.88 237.13 52.3 237.26 50.32 237.39 50.56 237.52 51.7 237.65 52.72 237.78 54.24 237.91 56.18 238.04 58.68 238.17 58.01 238.3 53.23 238.43 49.21 238.56 49.69 238.69 53.36 238.82 50.83 238.95 46.7 239.08 52.04 239.21 61.03 239.34 60.63 239.47 53.74"/>
    <rect class="cls-1" x="101.27" y="40.73" width="50.8" height="50.05"/>
    <line class="cls-6" x1="101.27" y1="90.78" x2="152.07" y2="90.78"/>
    <line class="cls-6" x1="101.27" y1="90.78" x2="101.27" y2="40.73"/>
    <line class="cls-6" x1="101.27" y1="78.27" x2="101.78" y2="78.27"/>
    <line class="cls-6" x1="101.27" y1="65.76" x2="101.78" y2="65.76"/>
    <line class="cls-6" x1="101.27" y1="53.25" x2="101.78" y2="53.25"/>
    <text class="cls-3" transform="translate(87.4 81.26)"><tspan x="0" y="0">C4</tspan></text>
    <text class="cls-3" transform="translate(87.57 68.75)"><tspan x="0" y="0">Cz</tspan></text>
    <text class="cls-3" transform="translate(87.62 56.23)"><tspan x="0" y="0">C3</tspan></text>
    <polyline class="cls-5" points="101.41 88.7 101.54 81.46 101.67 81.05 101.8 78.64 101.94 77.08 102.07 76.21 102.2 79.1 102.33 75.67 102.46 71.61 102.6 72.69 102.73 79.46 102.86 79.24 102.99 80.89 103.13 81.08 103.26 80.31 103.39 77.53 103.52 75.48 103.66 77.09 103.79 76.7 103.92 76.78 104.05 72.5 104.18 76.83 104.32 79.89 104.45 80.06 104.58 78.64 104.71 77.47 104.85 74.77 104.98 79.62 105.11 77.11 105.24 80 105.37 78.59 105.51 75.12 105.64 76.49 105.77 74.76 105.9 73.68 106.04 70.42 106.17 73.71 106.3 73.87 106.43 74.89 106.57 81.79 106.7 80.86 106.83 82.59 106.96 78.45 107.09 75.34 107.23 71.42 107.36 74.33 107.49 79.96 107.62 83.95 107.76 80.95 107.89 78.3 108.02 72.92 108.15 75.69 108.29 76.65 108.42 76.76 108.55 76.93 108.68 77.23 108.81 75.24 108.95 78.95 109.08 78.93 109.21 80.7 109.34 78.26 109.48 78.91 109.61 81.2 109.74 81.52 109.87 75.74 110 74.71 110.14 76.21 110.27 72.76 110.4 74.82 110.53 72.44 110.67 76.49 110.8 81.76 110.93 85.4 111.06 79.01 111.2 79.08 111.33 78.41 111.46 80.17 111.59 76.36 111.72 71.41 111.86 77.43 111.99 81.6 112.12 80.56 112.25 74.78 112.39 72.26 112.52 72.95 112.65 79.64 112.78 80.86 112.92 79.47 113.05 77.62 113.18 77.03 113.31 79.55 113.44 79.08 113.58 75.9 113.71 75.62 113.84 81.37 113.97 81.83 114.11 80.85 114.24 80.36 114.37 75.97 114.5 73.29 114.63 75.6 114.77 77.29 114.9 78.8 115.03 76.75 115.16 78.26 115.3 79.9 115.43 82.98 115.56 81.76 115.69 79.37 115.83 72.58 115.96 74.16 116.09 73.85 116.22 76.46 116.35 75.36 116.49 77.77 116.62 77.8 116.75 80.63 116.88 78.68 117.02 79.15 117.15 78.33 117.28 75.95 117.41 74.2 117.55 74.58 117.68 76.83 117.81 85.49 117.94 84.43 118.07 81.25 118.21 78.8 118.34 73.21 118.47 71.85 118.6 72.25 118.74 76.65 118.87 78.78 119 81.56 119.13 81.71 119.26 78.67 119.4 74.47 119.53 77.48 119.66 77.32 119.79 71.93 119.93 74.35 120.06 77.26 120.19 77.35 120.32 81.81 120.46 83.83 120.59 79 120.72 74.27 120.85 76.18 120.98 78.82 121.12 79.48 121.25 75.84 121.38 79.6 121.51 82.2 121.65 79.56 121.78 77.45 121.91 71.1 122.04 76.41 122.18 83.76 122.31 84.4 122.44 79.1 122.57 77.79 122.7 73.1 122.84 77.18 122.97 75.39 123.1 77.92 123.23 81.42 123.37 80.58 123.5 76.09 123.63 69.3 123.76 72.41 123.89 76.55 124.03 75.85 124.16 76.65 124.29 79.26 124.42 80.92 124.56 82.33 124.69 79.46 124.82 77.75 124.95 77.31 125.09 74.42 125.22 75.53 125.35 75.82 125.48 77.01 125.61 75.99 125.75 75.8 125.88 79.33 126.01 84.46 126.14 79.62 126.28 74.7 126.41 72.47 126.54 75.55 126.67 78.69 126.81 82.63 126.94 81.29 127.07 82.2 127.2 76.6 127.33 78.36 127.47 77.43 127.6 76.8 127.73 77.25 127.86 71.51 128 73.28 128.13 70.96 128.26 75.67 128.39 83.11 128.52 82.83 128.66 83.84 128.79 83.53 128.92 79.91 129.05 77.02 129.19 72.82 129.32 71.91 129.45 73.7 129.58 75.57 129.72 79.09 129.85 80.89 129.98 79.55 130.11 81.25 130.24 81.09 130.38 80.93 130.51 81.69 130.64 76.23 130.77 75.26 130.91 69.55 131.04 69.75 131.17 75.75 131.3 84.06 131.44 81.14 131.57 81.08 131.7 78.69 131.83 73.49 131.96 72.36 132.1 77.53 132.23 84.79 132.36 80.29 132.49 80.35 132.63 78.15 132.76 74.43 132.89 71.88 133.02 70.35 133.15 72.09 133.29 74.49 133.42 79.32 133.55 79.75 133.68 80.29 133.82 80.21 133.95 80.1 134.08 79.83 134.21 78.27 134.35 76.4 134.48 76.31 134.61 78.58 134.74 81.42 134.87 81.21 135.01 76.94 135.14 72.89 135.27 79.09 135.4 79.24 135.54 77.45 135.67 77.05 135.8 79.93 135.93 79.34 136.07 79.77 136.2 77.77 136.33 75.2 136.46 79.18 136.59 79.16 136.73 75.19 136.86 72.67 136.99 71.8 137.12 77.03 137.26 79.71 137.39 85.45 137.52 88.69 137.65 84.49 137.78 76.86 137.92 70.82 138.05 72.18 138.18 74.63 138.31 77.7 138.45 79.67 138.58 81.79 138.71 83.35 138.84 81.77 138.98 77.45 139.11 75.33 139.24 78.06 139.37 80.48 139.5 76.41 139.64 74.57 139.77 78.51 139.9 79.17 140.03 81.73 140.17 81.02 140.3 78.79 140.43 75.52 140.56 72.33 140.7 73.66 140.83 74.35 140.96 77.53 141.09 78 141.22 81.36 141.36 80.67 141.49 82.58 141.62 79.55 141.75 81.21 141.89 78.54 142.02 79.17 142.15 73.32 142.28 72.88 142.41 71.61 142.55 71.8 142.68 76.33 142.81 80.57 142.94 85.22 143.08 80.15 143.21 80.62 143.34 78.87 143.47 77.04 143.61 76.61 143.74 78.36 143.87 78.61 144 79.81 144.13 75.77 144.27 74.96 144.4 80.79 144.53 81.59 144.66 84.2 144.8 76.57 144.93 71.19 145.06 75.18 145.19 77.87 145.33 80.76 145.46 77.85 145.59 74.45 145.72 79.04 145.85 77.62 145.99 78 146.12 76.94 146.25 79.33 146.38 79.87 146.52 78.32 146.65 78.11 146.78 80.51 146.91 79.29 147.04 76.4 147.18 75.17 147.31 76.58 147.44 76.94 147.57 77.81 147.71 73.93 147.84 76.03 147.97 81.52 148.1 80.36 148.24 80.21 148.37 76.52 148.5 73.51 148.63 74.39 148.76 75.43 148.9 79.63 149.03 80.76 149.16 79.92 149.29 81.44 149.43 80.11 149.56 74.14 149.69 69.77 149.82 71.82 149.96 76.49 150.09 83.15 150.22 79.89 150.35 81.24 150.48 76.42 150.62 72.88 150.75 79.92 150.88 86.23 151.01 85.45 151.15 80.61 151.28 78.71 151.41 75.82 151.54 73.08 151.67 67.9 151.81 71.88 151.94 77.22 152.07 82.36"/>
    <polyline class="cls-5" points="101.41 57.38 101.54 64.21 101.67 64.52 101.8 66.53 101.94 66.57 102.07 69.28 102.2 69.23 102.33 64.36 102.46 61.65 102.6 63.29 102.73 65.32 102.86 66.76 102.99 68.33 103.13 66.83 103.26 62.63 103.39 65.06 103.52 63.48 103.66 65.06 103.79 64.26 103.92 64.68 104.05 69.47 104.18 70.13 104.32 69.74 104.45 65.29 104.58 61.85 104.71 63.66 104.85 69.25 104.98 70.67 105.11 68.84 105.24 65.34 105.37 64.52 105.51 64.47 105.64 60.85 105.77 60.52 105.9 63.34 106.04 65.49 106.17 64.58 106.3 63.55 106.43 68.54 106.57 70.94 106.7 69.59 106.83 64.82 106.96 65.08 107.09 66.81 107.23 67 107.36 63.4 107.49 61.59 107.62 66.14 107.76 66.47 107.89 65.97 108.02 66.98 108.15 65.32 108.29 64.51 108.42 62.8 108.55 64.41 108.68 64.62 108.81 64.23 108.95 64.05 109.08 62.66 109.21 64.53 109.34 70.31 109.48 68.34 109.61 66.4 109.74 65.92 109.87 68.14 110 66.27 110.14 68.48 110.27 66.57 110.4 64.84 110.53 63.75 110.67 63.66 110.8 66.92 110.93 71.16 111.06 69.14 111.2 65.78 111.33 64.11 111.46 60.48 111.59 62.86 111.72 66.51 111.86 67.95 111.99 66.87 112.12 64.79 112.25 64.65 112.39 66.18 112.52 67.74 112.65 70.02 112.78 68.07 112.92 63.19 113.05 64.54 113.18 65.64 113.31 65.34 113.44 63.77 113.58 65.14 113.71 66.36 113.84 67.63 113.97 69.4 114.11 66.53 114.24 65.6 114.37 65.66 114.5 64.66 114.63 62.58 114.77 65.47 114.9 64.24 115.03 66.2 115.16 67.28 115.3 70.79 115.43 68.59 115.56 68.11 115.69 67.11 115.83 62.84 115.96 63.69 116.09 62.09 116.22 61.36 116.35 64.02 116.49 66.28 116.62 64.93 116.75 65.98 116.88 67.34 117.02 63.26 117.15 62.82 117.28 60.18 117.41 59.5 117.55 63.96 117.68 64.94 117.81 65.44 117.94 68.86 118.07 71.79 118.21 74.43 118.34 66.35 118.47 60.17 118.6 57.07 118.74 62.39 118.87 66.73 119 65.63 119.13 65.96 119.26 65.98 119.4 65.38 119.53 67.74 119.66 70.2 119.79 67.69 119.93 64.83 120.06 67.33 120.19 68.38 120.32 67.52 120.46 69.31 120.59 64.14 120.72 60.2 120.85 59.5 120.98 64.17 121.12 66.82 121.25 64.24 121.38 67.72 121.51 68.34 121.65 71.73 121.78 72.75 121.91 73.49 122.04 70.97 122.18 60.49 122.31 59.27 122.44 60.45 122.57 63.94 122.7 65.83 122.84 64.25 122.97 66.2 123.1 68.58 123.23 70.34 123.37 72.13 123.5 63.31 123.63 64.6 123.76 64.45 123.89 66.68 124.03 65.76 124.16 63.99 124.29 66.6 124.42 65.64 124.56 64.99 124.69 63.01 124.82 65.42 124.95 67.98 125.09 71.91 125.22 66.59 125.35 62.64 125.48 62.02 125.61 60.94 125.75 67.76 125.88 70.53 126.01 72.68 126.14 67.35 126.28 65.58 126.41 62.62 126.54 62.75 126.67 66.15 126.81 70.86 126.94 67.19 127.07 63.48 127.2 65.31 127.33 65.2 127.47 70.77 127.6 67.3 127.73 63.33 127.86 65.65 128 64.24 128.13 67.3 128.26 63.86 128.39 65.95 128.52 68.93 128.66 68.2 128.79 64.86 128.92 65.22 129.05 63.66 129.19 69.08 129.32 69.82 129.45 67.75 129.58 65.13 129.72 65.93 129.85 70.68 129.98 71.11 130.11 67.97 130.24 67 130.38 67.39 130.51 64.68 130.64 59.56 130.77 59.76 130.91 65.56 131.04 69.1 131.17 66.73 131.3 66.12 131.44 69.96 131.57 68.06 131.7 66.79 131.83 63.51 131.96 61.87 132.1 65.46 132.23 72.83 132.36 73.55 132.49 68.38 132.63 65.49 132.76 63.2 132.89 62.07 133.02 64.73 133.15 64.45 133.29 63.83 133.42 66.51 133.55 67.73 133.68 66.64 133.82 67.72 133.95 65.02 134.08 66.41 134.21 68.44 134.35 69.93 134.48 65.98 134.61 63.17 134.74 62.81 134.87 59.87 135.01 63.77 135.14 69.26 135.27 67.86 135.4 65.9 135.54 62.84 135.67 63.62 135.8 66.23 135.93 66.65 136.07 67.31 136.2 64.04 136.33 63.81 136.46 66.25 136.59 63.24 136.73 63.71 136.86 64.95 136.99 69.44 137.12 64.58 137.26 61.02 137.39 59.13 137.52 65.46 137.65 72.51 137.78 75.45 137.92 68.65 138.05 60.49 138.18 59.72 138.31 64.29 138.45 72.37 138.58 72.8 138.71 69.16 138.84 64.65 138.98 60.84 139.11 64.48 139.24 64.74 139.37 67.2 139.5 66 139.64 69.58 139.77 71.43 139.9 67.48 140.03 63.1 140.17 66.59 140.3 68.5 140.43 65.28 140.56 61.95 140.7 62.33 140.83 63.18 140.96 63.66 141.09 66.24 141.22 66.39 141.36 67.43 141.49 68.09 141.62 67.9 141.75 63.5 141.89 63.89 142.02 62.53 142.15 61.71 142.28 63.78 142.41 63.66 142.55 67.6 142.68 68.98 142.81 68.64 142.94 67.1 143.08 62.67 143.21 61.68 143.34 61.94 143.47 61.9 143.61 65.55 143.74 67.86 143.87 68.46 144 69.13 144.13 63.6 144.27 64.54 144.4 66.14 144.53 63.24 144.66 61.28 144.8 65.83 144.93 68.78 145.06 69.41 145.19 64.56 145.33 63.73 145.46 63.64 145.59 65.63 145.72 66.08 145.85 67.74 145.99 69.47 146.12 67 146.25 61.3 146.38 61.11 146.52 64.73 146.65 70.07 146.78 68.46 146.91 68.88 147.04 63.34 147.18 60.57 147.31 63.09 147.44 69.56 147.57 73.76 147.71 69.44 147.84 63.43 147.97 59.29 148.1 68.16 148.24 69.62 148.37 63.91 148.5 63 148.63 64.83 148.76 67.03 148.9 66.22 149.03 63.24 149.16 66.31 149.29 66.06 149.43 65.17 149.56 65.86 149.69 66.62 149.82 66.96 149.96 64.16 150.09 62.28 150.22 65.81 150.35 65.32 150.48 65.1 150.62 66.19 150.75 71.62 150.88 74.1 151.01 70.97 151.15 64.68 151.28 60.17 151.41 60.09 151.54 63.88 151.67 70.58 151.81 68.89 151.94 61.78 152.07 58.66"/>
    <polyline class="cls-5" points="101.41 47.58 101.54 53.87 101.67 46.59 101.8 49.19 101.94 51.39 102.07 50.89 102.2 54.09 102.33 58.7 102.46 55.46 102.6 55.26 102.73 49.29 102.86 40.73 102.99 45.87 103.13 51.07 103.26 60.75 103.39 57.91 103.52 51.15 103.66 49.64 103.79 53.82 103.92 55.03 104.05 53.95 104.18 53.92 104.32 53.69 104.45 51.11 104.58 52.29 104.71 53.86 104.85 53.28 104.98 52.04 105.11 48.62 105.24 50.68 105.37 55.43 105.51 57.06 105.64 56.63 105.77 57.55 105.9 57.95 106.04 55.82 106.17 51.3 106.3 48.16 106.43 48.18 106.57 49.41 106.7 49.03 106.83 51.2 106.96 49.55 107.09 56.34 107.23 58.95 107.36 57.38 107.49 54.33 107.62 50.91 107.76 44.91 107.89 46.45 108.02 51.97 108.15 56.13 108.29 56.68 108.42 55.17 108.55 53.95 108.68 54.06 108.81 52.8 108.95 51.49 109.08 49.65 109.21 51.15 109.34 50.73 109.48 54.54 109.61 52.08 109.74 52.88 109.87 52.77 110 53.94 110.14 54.75 110.27 52.28 110.4 57.56 110.53 56.05 110.67 55.07 110.8 53.27 110.93 52.69 111.06 51.64 111.2 52.62 111.33 50.42 111.46 50.81 111.59 54.51 111.72 55.52 111.86 51.29 111.99 51.13 112.12 52.03 112.25 52.04 112.39 52.79 112.52 50.39 112.65 49.9 112.78 49.13 112.92 54.83 113.05 65.76 113.18 62.58 113.31 56.82 113.44 50.76 113.58 42.09 113.71 42.57 113.84 48.56 113.97 53.39 114.11 56.47 114.24 56.84 114.37 59.38 114.5 55.91 114.63 52.34 114.77 52.4 114.9 50.45 115.03 51.42 115.16 51.13 115.3 50.53 115.43 50.63 115.56 50.67 115.69 50.46 115.83 54.12 115.96 55 116.09 59.54 116.22 57.26 116.35 53.22 116.49 46.17 116.62 45.94 116.75 49.99 116.88 51.48 117.02 54.08 117.15 56.43 117.28 55.58 117.41 55.87 117.55 50.25 117.68 44.16 117.81 43.56 117.94 46.41 118.07 55.82 118.21 56.13 118.34 56.65 118.47 52.54 118.6 52.77 118.74 57.12 118.87 56.34 119 51.67 119.13 48.24 119.26 53.29 119.4 52.1 119.53 50.34 119.66 50.06 119.79 51.21 119.93 54.62 120.06 52.36 120.19 51.99 120.32 50.91 120.46 53.36 120.59 53.49 120.72 54.79 120.85 57.33 120.98 56.62 121.12 52.69 121.25 56.47 121.38 57.46 121.51 51.87 121.65 51.11 121.78 52.53 121.91 55.55 122.04 58.79 122.18 54.98 122.31 49.77 122.44 52.08 122.57 55.75 122.7 52.99 122.84 53.02 122.97 51.85 123.1 50.07 123.23 52.75 123.37 51.7 123.5 54.27 123.63 56.8 123.76 53.32 123.89 47.75 124.03 45.96 124.16 50.51 124.29 53.07 124.42 54.23 124.56 55.12 124.69 54.5 124.82 57.32 124.95 55.61 125.09 48.65 125.22 48.06 125.35 43.55 125.48 47.45 125.61 54.58 125.75 61.78 125.88 60.82 126.01 55.17 126.14 50.96 126.28 52.81 126.41 51.99 126.54 52.26 126.67 47.65 126.81 48.17 126.94 47.88 127.07 53.05 127.2 59.47 127.33 59.63 127.47 49.12 127.6 46.15 127.73 50.03 127.86 59.81 128 58.11 128.13 53.22 128.26 48.13 128.39 49.22 128.52 51.43 128.66 53.44 128.79 49.26 128.92 47.92 129.05 48.98 129.19 56.5 129.32 60.81 129.45 60.91 129.58 57.78 129.72 51.52 129.85 50.12 129.98 50.04 130.11 46.6 130.24 49.34 130.38 53 130.51 58.85 130.64 60.92 130.77 59.44 130.91 51.89 131.04 49.08 131.17 48.83 131.3 50.56 131.44 50.93 131.57 50.52 131.7 53.3 131.83 53.82 131.96 52.74 132.1 53.38 132.23 55.41 132.36 54.57 132.49 55.64 132.63 50.37 132.76 49.81 132.89 50.71 133.02 55.05 133.15 56.82 133.29 52.58 133.42 52.49 133.55 53.44 133.68 53.64 133.82 53.35 133.95 51.73 134.08 54.44 134.21 57.47 134.35 51.15 134.48 51.56 134.61 54.17 134.74 53.71 134.87 54.2 135.01 54.52 135.14 55.8 135.27 51.93 135.4 49.08 135.54 50.09 135.67 46.61 135.8 50.24 135.93 50.76 136.07 53.04 136.2 55.17 136.33 54.57 136.46 51.1 136.59 54.91 136.73 57.22 136.86 57.68 136.99 55.6 137.12 53.27 137.26 51.5 137.39 50.94 137.52 52.29 137.65 56.93 137.78 57.75 137.92 53.79 138.05 47.71 138.18 42.44 138.31 44.6 138.45 50.44 138.58 56.56 138.71 57.2 138.84 60.82 138.98 61.64 139.11 59.78 139.24 53.58 139.37 50.23 139.5 47.47 139.64 48.87 139.77 52.03 139.9 53.97 140.03 54.25 140.17 53.06 140.3 54.49 140.43 55.65 140.56 61.26 140.7 57.49 140.83 51.95 140.96 46.72 141.09 43.16 141.22 49.7 141.36 52.69 141.49 57.5 141.62 59.25 141.75 60.77 141.89 61.89 142.02 56 142.15 55.19 142.28 50.66 142.41 48.89 142.55 49.43 142.68 48.3 142.81 48.24 142.94 50.73 143.08 55.02 143.21 54.58 143.34 56.07 143.47 56.46 143.61 56.61 143.74 51.88 143.87 51.39 144 51.37 144.13 58.93 144.27 60.12 144.4 55.95 144.53 49.96 144.66 47.41 144.8 47.09 144.93 50.88 145.06 53.81 145.19 51.23 145.33 51.01 145.46 56.18 145.59 59.37 145.72 54.65 145.85 45.95 145.99 53.65 146.12 54.81 146.25 50.73 146.38 48.25 146.52 44.64 146.65 45.79 146.78 48.04 146.91 53.74 147.04 59.83 147.18 61.71 147.31 59.15 147.44 55.71 147.57 49.31 147.71 47 147.84 50.22 147.97 57.51 148.1 53.65 148.24 49.51 148.37 48.13 148.5 52.5 148.63 55.16 148.76 55.37 148.9 58.02 149.03 53.43 149.16 56.11 149.29 52.29 149.43 53.05 149.56 54.67 149.69 54.86 149.82 52.64 149.96 53.42 150.09 51.52 150.22 50.3 150.35 54.41 150.48 58.08 150.62 59.13 150.75 50.21 150.88 49.89 151.01 51.15 151.15 50.27 151.28 53.83 151.41 58.12 151.54 55.9 151.67 47.14 151.81 50.48 151.94 46.58 152.07 54.64"/>
    <g>
      <circle class="cls-4" cx="70.35" cy="65.76" r="1.46"/>
      <circle class="cls-4" cx="81.35" cy="65.76" r="1.46"/>
      <circle class="cls-4" cx="75.85" cy="65.76" r="1.46"/>
    </g>
    <g>
      <circle class="cls-4" cx="158.12" cy="65.76" r="1.46"/>
      <circle class="cls-4" cx="169.12" cy="65.76" r="1.46"/>
      <circle class="cls-4" cx="163.62" cy="65.76" r="1.46"/>
    </g>
    <g>
      <path d="M34.79,39.26l.12-.04s.03-.09,.05-.18l-.1-.13c-.1,0-.2-.02-.29-.07-.09-.05-.14-.12-.14-.22l.05-.16,.07-.12,2-2.16,1.03,2.47c-.05,.09-.14,.16-.28,.2-.13,.04-.26,.06-.39,.06l-.07,.04-.04,.1-.02,.08,.1,.13h2.48l.11-.04,.06-.17-.1-.13c-.47,0-.76-.07-.87-.2l-1.35-3.24,1.79-1.93h.02s.01-.02,.01-.02c.22-.23,.45-.39,.71-.51,.26-.11,.54-.17,.84-.17l.07-.04,.04-.1,.02-.08-.02-.09-.08-.04h-2.15l-.12,.05-.05,.17,.1,.13c.12,0,.22,.02,.3,.07,.08,.05,.13,.12,.13,.22l-.05,.16-.07,.12-1.62,1.74-.85-2.05c.05-.09,.14-.16,.27-.2,.13-.04,.26-.06,.38-.06l.07-.03,.04-.1,.02-.09-.1-.13h-2.48l-.12,.05-.05,.17,.1,.13c.2,0,.38,.01,.53,.03,.15,.02,.26,.08,.33,.16l1.18,2.84-2.17,2.33-.03,.02c-.43,.45-.94,.67-1.54,.67l-.07,.03-.04,.1-.02,.09,.1,.13h2.15Z"/>
      <path d="M40.88,40.75h2.45l.08-.03,.04-.13-.07-.09c-.39,0-.65-.01-.77-.03l-.1-.11v-.03s.01-.03,.01-.03l.95-3.8c.03-.11,.07-.18,.11-.2,.04-.02,.13-.03,.25-.03h.41c.17,0,.31,.01,.42,.03,.11,.02,.2,.08,.26,.16,.07,.08,.1,.21,.1,.37,0,.14-.02,.37-.07,.69l.07,.09h.06l.04-.02,.02-.04,.23-1.43-.07-.09h-4.09l-.07,.06-.49,1.43,.07,.09h.06l.07-.06c.12-.35,.23-.61,.3-.76,.08-.16,.2-.28,.37-.38,.17-.09,.41-.14,.72-.14h.4c.16,0,.24,.02,.24,.05l-.03,.15-.95,3.81c-.02,.1-.1,.17-.22,.2-.13,.02-.39,.03-.79,.03l-.05,.02-.03,.07-.02,.06,.07,.09Z"/>
    </g>
    <g>
      <path d="M123.87,39.18l.12-.04s.03-.09,.05-.18l-.1-.13c-.1,0-.2-.02-.29-.07-.09-.05-.14-.12-.14-.22l.05-.16,.07-.12,2-2.16,1.03,2.47c-.05,.09-.14,.16-.28,.2-.13,.04-.26,.06-.39,.06l-.07,.04-.04,.1-.02,.08,.1,.13h2.48l.11-.04,.06-.17-.1-.13c-.47,0-.76-.07-.87-.2l-1.35-3.24,1.79-1.93h.02s.01-.02,.01-.02c.22-.23,.45-.39,.71-.51s.54-.17,.84-.17l.07-.04,.04-.1,.02-.08-.02-.09-.08-.04h-2.15l-.12,.05-.05,.17,.1,.13c.12,0,.22,.02,.3,.07,.08,.05,.13,.12,.13,.22l-.05,.16-.07,.12-1.62,1.74-.85-2.05c.05-.09,.14-.16,.27-.2,.13-.04,.26-.06,.38-.06l.07-.03,.04-.1,.02-.09-.1-.13h-2.48l-.12,.05-.05,.17,.1,.13c.2,0,.38,.01,.53,.03,.15,.02,.26,.08,.33,.16l1.18,2.84-2.17,2.33-.03,.02c-.43,.45-.94,.67-1.54,.67l-.07,.03-.04,.1-.02,.09,.1,.13h2.15Z"/>
      <path d="M130.19,40.57c.13,.12,.28,.18,.46,.18,.25,0,.47-.11,.67-.32,.19-.21,.34-.46,.44-.74v-.02s-.01-.04-.01-.04l-.04-.02h-.08l-.05,.04c-.08,.23-.2,.44-.36,.63-.16,.19-.34,.29-.54,.29-.14,0-.2-.1-.2-.3,0-.09,.02-.21,.05-.34l.5-2h.75l.05-.03,.03-.07v-.06s-.06-.09-.06-.09h-.71l.28-1.1v-.03s0-.03,0-.03l-.06-.14-.15-.05-.18,.06-.11,.16-.28,1.13h-.77s-.07,.05-.09,.15l.07,.09h.73l-.5,1.99-.02,.19c0,.19,.06,.34,.19,.46Z"/>
    </g>
    <g>
      <path d="M211.19,39.11l.12-.04s.03-.09,.05-.18l-.1-.13c-.1,0-.2-.02-.29-.07-.09-.05-.14-.12-.14-.22l.05-.16,.07-.12,2-2.16,1.03,2.47c-.05,.09-.14,.16-.28,.2-.13,.04-.26,.06-.39,.06l-.07,.04-.04,.1-.02,.08,.1,.13h2.48l.11-.04,.06-.17-.1-.13c-.47,0-.76-.07-.87-.2l-1.35-3.24,1.79-1.93h.02s.01-.02,.01-.02c.22-.23,.45-.39,.71-.51s.54-.17,.84-.17l.07-.04,.04-.1,.02-.08-.02-.09-.08-.04h-2.15l-.12,.05-.05,.17,.1,.13c.12,0,.22,.02,.3,.07,.08,.05,.13,.12,.13,.22l-.05,.16-.07,.12-1.62,1.74-.85-2.05c.05-.09,.14-.16,.27-.2,.13-.04,.26-.06,.38-.06l.07-.03,.04-.1,.02-.09-.1-.13h-2.48l-.12,.05-.05,.17,.1,.13c.2,0,.38,.01,.53,.03,.15,.02,.26,.08,.33,.16l1.18,2.84-2.17,2.33-.03,.02c-.43,.45-.94,.67-1.54,.67l-.07,.03-.04,.1-.02,.09,.1,.13h2.15Z"/>
      <path d="M218.15,40.32c-.12-.17-.21-.37-.26-.61-.05-.24-.09-.48-.1-.71-.01-.23-.02-.47-.02-.73,0-.35,.01-.67,.04-.96,.03-.29,.11-.56,.23-.8,.13-.24,.32-.36,.58-.36s.45,.12,.58,.36c.13,.24,.2,.5,.23,.8,.03,.29,.04,.61,.04,.96s-.01,.7-.04,1.02c-.03,.32-.11,.61-.23,.88-.13,.26-.32,.4-.58,.4-.2,0-.36-.08-.48-.25Zm1.39,.06c.21-.24,.36-.54,.43-.88,.07-.35,.11-.72,.11-1.11,0-.3-.02-.58-.06-.85-.04-.27-.11-.52-.21-.76-.1-.24-.25-.43-.44-.58-.19-.15-.44-.22-.75-.22-.39,0-.7,.12-.92,.37-.22,.25-.36,.55-.44,.9-.07,.35-.11,.73-.11,1.13,0,.64,.1,1.2,.31,1.66,.2,.47,.59,.7,1.16,.7,.39,0,.7-.12,.91-.36Z"/>
    </g>
    <g>
      <path class="cls-8" d="M40.07,30.39s.43-.31,1.24-.84"/>
      <path class="cls-9" d="M42.14,29.01c5.74-3.67,22.59-13.42,39.6-13.54,14.97-.11,30.09,6.45,38.33,10.72"/>
      <path class="cls-8" d="M120.51,26.42c.46,.24,.91,.48,1.32,.7"/>
      <polygon class="cls-4" points="126.41 29.78 118.42 28.74 121.46 26.96 121.43 23.44 126.41 29.78"/>
    </g>
    <g>
      <path class="cls-8" d="M128.91,30.39s.43-.31,1.23-.85"/>
      <path class="cls-7" d="M130.98,28.98c5.65-3.7,22.03-13.38,38.57-13.5,14.53-.1,29.19,6.39,37.26,10.66"/>
      <path class="cls-8" d="M207.26,26.38c.46,.25,.9,.49,1.32,.72"/>
      <polygon class="cls-4" points="213.13 29.79 205.14 28.67 208.21 26.93 208.21 23.4 213.13 29.79"/>
    </g>
    <g>
      <path class="cls-8" d="M214.19,92.67s-.44,.31-1.25,.83"/>
      <path class="cls-9" d="M212.11,94.03c-5.77,3.63-22.69,13.26-39.7,13.26-14.97,0-30.04-6.66-38.25-10.99"/>
      <path class="cls-8" d="M133.73,96.07c-.46-.25-.9-.49-1.32-.71"/>
      <polygon class="cls-4" points="127.85 92.67 135.83 93.77 132.77 95.52 132.78 99.04 127.85 92.67"/>
    </g>
    <g>
      <path class="cls-8" d="M125.35,92.04s-.43,.31-1.24,.84"/>
      <path class="cls-7" d="M123.27,93.44c-5.68,3.66-22.13,13.22-38.66,13.22-14.53,0-29.14-6.59-37.18-10.92"/>
      <path class="cls-8" d="M46.98,95.5c-.46-.25-.9-.49-1.31-.73"/>
      <polygon class="cls-4" points="41.13 92.04 49.1 93.22 46.03 94.94 46 98.47 41.13 92.04"/>
    </g>
    <text class="cls-2" transform="translate(63.78 118.26)"><tspan x="0" y="0">Forward di</tspan><tspan class="cls-10" x="52.99" y="0">f</tspan><tspan x="56.77" y="0">fusion process</tspan></text>
    <text class="cls-2" transform="translate(63 9.97)"><tspan x="0" y="0">Reverse denoising process</tspan></text>
  </g>
</svg>